<?xml version="1.0" encoding="UTF-8" standalone="no"?>
<!-- Created with Inkscape (http://www.inkscape.org/) -->

<svg
   xmlns:dc="http://purl.org/dc/elements/1.1/"
   xmlns:cc="http://creativecommons.org/ns#"
   xmlns:rdf="http://www.w3.org/1999/02/22-rdf-syntax-ns#"
   xmlns:svg="http://www.w3.org/2000/svg"
   xmlns="http://www.w3.org/2000/svg"
   version="1.1"
   width="400"
   height="400"
   id="svg2">
  <defs
     id="defs4" />
  <metadata
     id="metadata7">
    <rdf:RDF>
      <cc:Work
         rdf:about="">
        <dc:format>image/svg+xml</dc:format>
        <dc:type
           rdf:resource="http://purl.org/dc/dcmitype/StillImage" />
        <dc:title></dc:title>
      </cc:Work>
    </rdf:RDF>
  </metadata>
  <g
     transform="translate(0,-652.36218)"
     id="layer1">
    <path
       d="m -11.625,-38.875 0,39.1875 11.4375,0 0,399.6875 -29.09375,0 0,32.3125 468.6875,0 0,-32.3125 -5.0625,0 0,-399.6875 21.21875,0 0,-39.1875 -467.1875,0 z m 205.25,39.1875 13.6875,0 C 314.20135,3.9170953 399.75,91.671105 399.75,199.4375 399.75,309.49321 310.52446,398.71875 200.46875,398.71875 90.413039,398.71875 1.1875,309.49321 1.1875,199.4375 1.1875,91.671105 86.736152,3.9170953 193.625,0.3125 z"
       transform="translate(0,652.36218)"
       id="path2993"
       style="fill:#ffffff;fill-opacity:1;stroke:none" />
  </g>
</svg>
